<svg width="300" height="300" viewBox="0 0 300 300" fill="none" xmlns="http://www.w3.org/2000/svg">
<rect width="300" height="300" fill="#346570"/>
<rect x="5" width="290" height="300" rx="70" fill="#346570"/>
<g filter="url(#filter0_d_18_10)">
<path d="M77.7518 76.8862C84.3381 68.3726 108.378 66.5465 124.817 70.1704C133.194 72.0174 150.145 78.3619 155.8 81.8608C163.34 86.5259 213.282 68.3068 222.928 81.8608C232.575 95.4149 229.232 113.307 224.509 128.679C219.082 141.807 208.062 158.899 208.062 158.899C203.132 167.307 202.316 210.671 196.734 224.935C192.269 236.346 178.785 244.005 172.975 239.528C165.63 222.543 177.264 186.966 164.244 160.482C151.224 133.999 131.087 160.117 128.502 179.352L124.243 199.032C123.396 197.891 121.509 238.574 116.76 241.558C112.515 244.225 103.285 230.677 97.2344 218.48C95.8467 215.683 95.1235 212.624 94.9756 209.502C94.1075 191.174 93.2467 155.687 93.2467 155.687C91.482 152.307 84.2321 146.307 75.5402 134.061C66.8483 121.815 69.6185 87.3992 77.7518 76.8862Z" fill="#80B0BA" shape-rendering="crispEdges"/>
<path d="M77.7518 76.8862C84.3381 68.3726 108.378 66.5465 124.817 70.1704C133.194 72.0174 150.145 78.3619 155.8 81.8608C163.34 86.5259 213.282 68.3068 222.928 81.8608C232.575 95.4149 229.232 113.307 224.509 128.679C219.082 141.807 208.062 158.899 208.062 158.899C203.132 167.307 202.316 210.671 196.734 224.935C192.269 236.346 178.785 244.005 172.975 239.528C165.63 222.543 177.264 186.966 164.244 160.482C151.224 133.999 131.087 160.117 128.502 179.352L124.243 199.032C123.396 197.891 121.509 238.574 116.76 241.558C112.515 244.225 103.285 230.677 97.2344 218.48C95.8467 215.683 95.1235 212.624 94.9756 209.502C94.1075 191.174 93.2467 155.687 93.2467 155.687C91.482 152.307 84.2321 146.307 75.5402 134.061C66.8483 121.815 69.6185 87.3992 77.7518 76.8862Z" stroke="#FDD816" stroke-opacity="0.54" stroke-width="1.2" shape-rendering="crispEdges"/>
</g>
<path d="M150 75C150 75 159.102 86.0611 167.545 89.6549C172.782 91.8839 181.9 93 181.9 93" stroke="#4B85E9"/>
<path d="M38.5 118L8 46H19.5L32 80.15L41.1 108.5L64.6 46.1L94.6875 46L59.25 118H49H38.5Z" fill="white"/>
<path d="M150.883 118V46H178.683C179.383 46 180.166 46.0333 181.033 46.1C181.933 46.1333 182.833 46.2333 183.733 46.4C187.499 46.9667 190.683 48.2833 193.283 50.35C195.916 52.3833 197.899 54.95 199.233 58.05C200.599 61.15 201.283 64.5833 201.283 68.35C201.283 73.7833 199.849 78.5 196.983 82.5C194.116 86.5 190.016 89.0167 184.683 90.05L182.133 90.65H158.233V118H150.883ZM199.769 118L180.283 88.7L187.333 86L208.969 118H199.769ZM158.233 83.65H178.483C179.083 83.65 179.783 83.6167 180.583 83.55C181.383 83.4833 182.166 83.3667 182.933 83.2C185.399 82.6667 187.416 81.65 188.983 80.15C190.583 78.65 191.766 76.8667 192.533 74.8C193.333 72.7333 193.733 70.5833 193.733 68.35C193.733 66.1167 193.333 63.9667 192.533 61.9C191.766 59.8 190.583 58 188.983 56.5C187.416 55 185.399 53.9833 182.933 53.45C182.166 53.2833 181.383 53.1833 180.583 53.15C179.783 53.0833 179.083 53.05 178.483 53.05H158.233V83.65Z" fill="white"/>
<path d="M208.969 118L233.769 46H243.519L268.319 118H260.669L237.119 50.1H240.019L216.619 118H208.969ZM220.019 100.55V93.65H257.219V100.55H220.019Z" fill="white"/>
<path d="M17.5 207V135.45L55.35 135C56.1167 135 57.4167 135.017 59.25 135.05C61.1167 135.083 62.9 135.217 64.6 135.45C70.0667 136.217 74.6333 138.25 78.3 141.55C81.9667 144.85 84.7167 149.05 86.55 154.15C88.3833 159.25 89.3 164.867 89.3 171C89.3 177.133 88.3833 182.75 86.55 187.85C84.7167 192.95 81.9667 197.15 78.3 200.45C74.6333 203.75 70.0667 205.783 64.6 206.55C62.9333 206.75 61.15 206.883 59.25 206.95C57.35 206.983 56.05 207 55.35 207H17.5ZM41.1 199.95H55.35C56.7167 199.95 58.1833 199.917 59.75 199.85C61.35 199.75 62.7167 199.583 63.85 199.35C68.05 198.617 71.4333 196.917 74 194.25C76.6 191.583 78.5 188.25 79.7 184.25C80.9 180.217 81.5 175.8 81.5 171C81.5 166.167 80.9 161.733 79.7 157.7C78.5 153.667 76.6 150.333 74 147.7C71.4 145.067 68.0167 143.383 63.85 142.65C62.7167 142.417 61.3333 142.267 59.7 142.2C58.1 142.1 56.65 142.05 55.35 142.05H41.1V199.95Z" fill="white"/>
<path d="M94.6875 206.55V46L139.688 46.4V53.45L121 53.15L102.037 53.05V122H133.687V129.05H102.037V199.35L139.688 200.45V206.55H94.6875Z" fill="white"/>
<path d="M152.719 207V135H160.119L199.769 194V135H207.169V207H199.769L160.119 147.95V207H152.719Z" fill="white"/>
<path d="M228.5 206.95V173.5V142.65L207.169 142.2V135H272.826V142.05H236.5V173.5V207L228.5 206.95Z" fill="white"/>
<path d="M33.72 256.24C32.5733 256.24 31.6107 255.987 30.832 255.48C30.0533 254.968 29.4667 254.261 29.072 253.36C28.6773 252.459 28.48 251.419 28.48 250.24C28.48 249.061 28.6773 248.021 29.072 247.12C29.4667 246.219 30.0533 245.515 30.832 245.008C31.6107 244.496 32.5733 244.24 33.72 244.24C35.0587 244.24 36.144 244.587 36.976 245.28C37.8133 245.973 38.3813 246.901 38.68 248.064L37.728 248.296C37.4827 247.331 37.024 246.565 36.352 246C35.6853 245.429 34.808 245.144 33.72 245.144C32.776 245.144 31.9893 245.36 31.36 245.792C30.736 246.224 30.264 246.824 29.944 247.592C29.6293 248.36 29.4693 249.243 29.464 250.24C29.4533 251.237 29.6053 252.12 29.92 252.888C30.24 253.651 30.7173 254.251 31.352 254.688C31.9867 255.12 32.776 255.336 33.72 255.336C34.808 255.336 35.6853 255.051 36.352 254.48C37.024 253.909 37.4827 253.144 37.728 252.184L38.68 252.416C38.3813 253.579 37.8133 254.507 36.976 255.2C36.144 255.893 35.0587 256.24 33.72 256.24ZM45.7205 256V248.24H42.5925V247.36H49.7685V248.24H46.6405V256H45.7205ZM57.549 256.24C56.6903 256.24 55.9623 256.045 55.365 255.656C54.7677 255.267 54.3117 254.728 53.997 254.04C53.6823 253.352 53.525 252.56 53.525 251.664C53.525 250.763 53.685 249.971 54.005 249.288C54.325 248.6 54.7837 248.067 55.381 247.688C55.9837 247.309 56.7063 247.12 57.549 247.12C58.4077 247.12 59.1357 247.315 59.733 247.704C60.3357 248.088 60.7917 248.621 61.101 249.304C61.4157 249.987 61.573 250.773 61.573 251.664C61.573 252.576 61.4157 253.376 61.101 254.064C60.7863 254.747 60.3277 255.28 59.725 255.664C59.1223 256.048 58.397 256.24 57.549 256.24ZM57.549 255.344C58.5677 255.344 59.3277 255.003 59.829 254.32C60.3357 253.637 60.589 252.752 60.589 251.664C60.589 250.555 60.3357 249.669 59.829 249.008C59.3223 248.347 58.5623 248.016 57.549 248.016C56.861 248.016 56.293 248.173 55.845 248.488C55.397 248.797 55.061 249.227 54.837 249.776C54.6183 250.32 54.509 250.949 54.509 251.664C54.509 252.773 54.765 253.664 55.277 254.336C55.7943 255.008 56.5517 255.344 57.549 255.344ZM66.2131 256V247.36H67.0771L70.5411 254.8L73.9971 247.36H74.8691V256H73.9571V249.416L70.9091 256H70.1651L67.1171 249.416V256H66.2131ZM82.4798 256.24C81.8131 256.24 81.2584 256.123 80.8158 255.888C80.3784 255.653 80.0504 255.344 79.8318 254.96C79.6131 254.571 79.5038 254.149 79.5038 253.696C79.5038 253.205 79.6051 252.795 79.8078 252.464C80.0158 252.133 80.2904 251.867 80.6318 251.664C80.9784 251.461 81.3598 251.309 81.7758 251.208C82.2504 251.101 82.7624 251.011 83.3118 250.936C83.8611 250.856 84.3838 250.787 84.8798 250.728C85.3811 250.669 85.7891 250.619 86.1038 250.576L85.7678 250.776C85.7891 249.843 85.6131 249.149 85.2398 248.696C84.8718 248.237 84.2211 248.008 83.2878 248.008C82.6318 248.008 82.0904 248.157 81.6638 248.456C81.2424 248.749 80.9464 249.205 80.7758 249.824L79.8318 249.56C80.0291 248.776 80.4264 248.173 81.0238 247.752C81.6211 247.331 82.3864 247.12 83.3198 247.12C84.1144 247.12 84.7811 247.275 85.3198 247.584C85.8638 247.893 86.2424 248.328 86.4558 248.888C86.5464 249.117 86.6078 249.387 86.6398 249.696C86.6718 250 86.6878 250.307 86.6878 250.616V256H85.8478V253.728L86.1598 253.808C85.8984 254.587 85.4424 255.187 84.7918 255.608C84.1411 256.029 83.3704 256.24 82.4798 256.24ZM82.5278 255.392C83.1144 255.392 83.6291 255.288 84.0718 255.08C84.5144 254.867 84.8718 254.571 85.1438 254.192C85.4211 253.808 85.5971 253.357 85.6718 252.84C85.7251 252.552 85.7544 252.24 85.7598 251.904C85.7651 251.568 85.7678 251.32 85.7678 251.16L86.1678 251.416C85.8211 251.459 85.4051 251.504 84.9198 251.552C84.4398 251.6 83.9491 251.659 83.4478 251.728C82.9464 251.797 82.4931 251.885 82.0878 251.992C81.8371 252.061 81.5838 252.163 81.3278 252.296C81.0771 252.424 80.8664 252.603 80.6958 252.832C80.5304 253.061 80.4478 253.352 80.4478 253.704C80.4478 253.965 80.5118 254.227 80.6398 254.488C80.7731 254.749 80.9918 254.965 81.2958 255.136C81.5998 255.307 82.0104 255.392 82.5278 255.392ZM94.053 256V248.24H90.925V247.36H98.101V248.24H94.973V256H94.053ZM105.881 256.24C105.023 256.24 104.295 256.045 103.697 255.656C103.1 255.267 102.644 254.728 102.329 254.04C102.015 253.352 101.857 252.56 101.857 251.664C101.857 250.763 102.017 249.971 102.337 249.288C102.657 248.6 103.116 248.067 103.713 247.688C104.316 247.309 105.039 247.12 105.881 247.12C106.74 247.12 107.468 247.315 108.065 247.704C108.668 248.088 109.124 248.621 109.433 249.304C109.748 249.987 109.905 250.773 109.905 251.664C109.905 252.576 109.748 253.376 109.433 254.064C109.119 254.747 108.66 255.28 108.057 255.664C107.455 256.048 106.729 256.24 105.881 256.24ZM105.881 255.344C106.9 255.344 107.66 255.003 108.161 254.32C108.668 253.637 108.921 252.752 108.921 251.664C108.921 250.555 108.668 249.669 108.161 249.008C107.655 248.347 106.895 248.016 105.881 248.016C105.193 248.016 104.625 248.173 104.177 248.488C103.729 248.797 103.393 249.227 103.169 249.776C102.951 250.32 102.841 250.949 102.841 251.664C102.841 252.773 103.097 253.664 103.609 254.336C104.127 255.008 104.884 255.344 105.881 255.344ZM113.746 256V255.168C114.071 255.227 114.316 255.211 114.482 255.12C114.647 255.024 114.767 254.869 114.842 254.656C114.922 254.437 114.986 254.173 115.034 253.864C115.124 253.331 115.204 252.749 115.274 252.12C115.343 251.485 115.407 250.779 115.466 250C115.524 249.216 115.583 248.336 115.642 247.36H121.362V256H120.434V248.256H116.538C116.495 248.896 116.447 249.517 116.394 250.12C116.346 250.723 116.292 251.296 116.234 251.84C116.18 252.379 116.122 252.872 116.058 253.32C115.999 253.763 115.935 254.147 115.866 254.472C115.786 254.899 115.676 255.243 115.538 255.504C115.404 255.76 115.199 255.931 114.922 256.016C114.644 256.101 114.252 256.096 113.746 256ZM130.032 256.24C129.173 256.24 128.445 256.045 127.848 255.656C127.251 255.267 126.795 254.728 126.48 254.04C126.165 253.352 126.008 252.56 126.008 251.664C126.008 250.763 126.168 249.971 126.488 249.288C126.808 248.6 127.267 248.067 127.864 247.688C128.467 247.309 129.189 247.12 130.032 247.12C130.891 247.12 131.619 247.315 132.216 247.704C132.819 248.088 133.275 248.621 133.584 249.304C133.899 249.987 134.056 250.773 134.056 251.664C134.056 252.576 133.899 253.376 133.584 254.064C133.269 254.747 132.811 255.28 132.208 255.664C131.605 256.048 130.88 256.24 130.032 256.24ZM130.032 255.344C131.051 255.344 131.811 255.003 132.312 254.32C132.819 253.637 133.072 252.752 133.072 251.664C133.072 250.555 132.819 249.669 132.312 249.008C131.805 248.347 131.045 248.016 130.032 248.016C129.344 248.016 128.776 248.173 128.328 248.488C127.88 248.797 127.544 249.227 127.32 249.776C127.101 250.32 126.992 250.949 126.992 251.664C126.992 252.773 127.248 253.664 127.76 254.336C128.277 255.008 129.035 255.344 130.032 255.344ZM138.696 256V247.36H144.536V248.256H139.616V256H138.696ZM155.592 247.36V256H154.688V248.904L149.744 256H148.936V247.36H149.84V254.424L154.784 247.36H155.592ZM166.21 256V252.624H164.026C163.786 252.624 163.549 252.613 163.314 252.592C163.085 252.565 162.869 252.533 162.666 252.496C162.08 252.384 161.576 252.128 161.154 251.728C160.738 251.323 160.53 250.755 160.53 250.024C160.53 249.32 160.722 248.755 161.106 248.328C161.496 247.901 161.952 247.621 162.474 247.488C162.725 247.424 162.976 247.387 163.226 247.376C163.482 247.365 163.706 247.36 163.898 247.36H167.13L167.146 256H166.21ZM160.226 256L162.754 252.264H163.818L161.274 256H160.226ZM164.018 251.784H166.21V248.2H164.018C163.874 248.2 163.674 248.205 163.418 248.216C163.162 248.227 162.925 248.267 162.706 248.336C162.52 248.389 162.333 248.485 162.146 248.624C161.96 248.757 161.805 248.939 161.682 249.168C161.56 249.397 161.498 249.677 161.498 250.008C161.498 250.472 161.624 250.843 161.874 251.12C162.125 251.392 162.442 251.576 162.826 251.672C163.045 251.725 163.258 251.757 163.466 251.768C163.68 251.779 163.864 251.784 164.018 251.784ZM178.357 256V244.48H182.765C183.362 244.48 183.898 244.608 184.373 244.864C184.853 245.115 185.229 245.459 185.501 245.896C185.778 246.333 185.917 246.827 185.917 247.376C185.917 247.995 185.746 248.552 185.405 249.048C185.064 249.539 184.61 249.883 184.045 250.08L184.013 249.696C184.77 249.925 185.37 250.309 185.813 250.848C186.261 251.381 186.485 252.043 186.485 252.832C186.485 253.493 186.338 254.061 186.045 254.536C185.757 255.005 185.357 255.368 184.845 255.624C184.333 255.875 183.752 256 183.101 256H178.357ZM179.285 255.096H182.797C183.309 255.096 183.768 255.008 184.173 254.832C184.584 254.656 184.906 254.403 185.141 254.072C185.381 253.741 185.501 253.341 185.501 252.872C185.501 252.408 185.392 251.989 185.173 251.616C184.96 251.237 184.669 250.939 184.301 250.72C183.933 250.496 183.52 250.384 183.061 250.384H179.285V255.096ZM179.285 249.496H182.757C183.157 249.496 183.522 249.403 183.853 249.216C184.189 249.029 184.456 248.776 184.653 248.456C184.85 248.131 184.949 247.76 184.949 247.344C184.949 246.752 184.738 246.275 184.317 245.912C183.901 245.549 183.381 245.368 182.757 245.368H179.285V249.496ZM194.516 256.24C193.689 256.24 192.974 256.056 192.372 255.688C191.769 255.315 191.302 254.789 190.972 254.112C190.641 253.429 190.476 252.624 190.476 251.696C190.476 250.752 190.638 249.939 190.964 249.256C191.294 248.568 191.758 248.04 192.356 247.672C192.958 247.304 193.673 247.12 194.5 247.12C195.337 247.12 196.052 247.312 196.644 247.696C197.241 248.075 197.694 248.624 198.004 249.344C198.318 250.064 198.468 250.931 198.452 251.944H197.492V251.624C197.465 250.44 197.198 249.539 196.692 248.92C196.185 248.301 195.46 247.992 194.516 247.992C193.54 247.992 192.785 248.315 192.252 248.96C191.724 249.6 191.46 250.507 191.46 251.68C191.46 252.843 191.724 253.744 192.252 254.384C192.785 255.024 193.534 255.344 194.5 255.344C195.166 255.344 195.748 255.189 196.244 254.88C196.745 254.565 197.142 254.117 197.436 253.536L198.268 253.904C197.921 254.651 197.42 255.227 196.764 255.632C196.108 256.037 195.358 256.24 194.516 256.24ZM191.108 251.944V251.112H197.932V251.944H191.108ZM206.885 256.24C206.107 256.24 205.448 256.037 204.909 255.632C204.371 255.227 203.96 254.68 203.677 253.992C203.395 253.304 203.253 252.528 203.253 251.664C203.253 250.795 203.395 250.019 203.677 249.336C203.96 248.648 204.379 248.107 204.933 247.712C205.488 247.317 206.168 247.12 206.973 247.12C207.757 247.12 208.427 247.32 208.981 247.72C209.536 248.12 209.957 248.664 210.245 249.352C210.539 250.04 210.685 250.811 210.685 251.664C210.685 252.528 210.536 253.307 210.237 254C209.944 254.688 209.515 255.235 208.949 255.64C208.389 256.04 207.701 256.24 206.885 256.24ZM203.101 259.84V247.36H203.941V254.016H204.021V259.84H203.101ZM206.829 255.36C207.464 255.36 207.992 255.197 208.413 254.872C208.84 254.547 209.16 254.107 209.373 253.552C209.592 252.992 209.701 252.363 209.701 251.664C209.701 250.971 209.595 250.349 209.381 249.8C209.173 249.245 208.856 248.808 208.429 248.488C208.008 248.163 207.469 248 206.813 248C206.179 248 205.648 248.157 205.221 248.472C204.795 248.781 204.475 249.213 204.261 249.768C204.048 250.323 203.941 250.955 203.941 251.664C203.941 252.368 204.045 253 204.253 253.56C204.467 254.115 204.787 254.555 205.213 254.88C205.645 255.2 206.184 255.36 206.829 255.36ZM217.821 256.24C217.154 256.24 216.6 256.123 216.157 255.888C215.72 255.653 215.392 255.344 215.173 254.96C214.954 254.571 214.845 254.149 214.845 253.696C214.845 253.205 214.946 252.795 215.149 252.464C215.357 252.133 215.632 251.867 215.973 251.664C216.32 251.461 216.701 251.309 217.117 251.208C217.592 251.101 218.104 251.011 218.653 250.936C219.202 250.856 219.725 250.787 220.221 250.728C220.722 250.669 221.13 250.619 221.445 250.576L221.109 250.776C221.13 249.843 220.954 249.149 220.581 248.696C220.213 248.237 219.562 248.008 218.629 248.008C217.973 248.008 217.432 248.157 217.005 248.456C216.584 248.749 216.288 249.205 216.117 249.824L215.173 249.56C215.37 248.776 215.768 248.173 216.365 247.752C216.962 247.331 217.728 247.12 218.661 247.12C219.456 247.12 220.122 247.275 220.661 247.584C221.205 247.893 221.584 248.328 221.797 248.888C221.888 249.117 221.949 249.387 221.981 249.696C222.013 250 222.029 250.307 222.029 250.616V256H221.189V253.728L221.501 253.808C221.24 254.587 220.784 255.187 220.133 255.608C219.482 256.029 218.712 256.24 217.821 256.24ZM217.869 255.392C218.456 255.392 218.97 255.288 219.413 255.08C219.856 254.867 220.213 254.571 220.485 254.192C220.762 253.808 220.938 253.357 221.013 252.84C221.066 252.552 221.096 252.24 221.101 251.904C221.106 251.568 221.109 251.32 221.109 251.16L221.509 251.416C221.162 251.459 220.746 251.504 220.261 251.552C219.781 251.6 219.29 251.659 218.789 251.728C218.288 251.797 217.834 251.885 217.429 251.992C217.178 252.061 216.925 252.163 216.669 252.296C216.418 252.424 216.208 252.603 216.037 252.832C215.872 253.061 215.789 253.352 215.789 253.704C215.789 253.965 215.853 254.227 215.981 254.488C216.114 254.749 216.333 254.965 216.637 255.136C216.941 255.307 217.352 255.392 217.869 255.392ZM226.482 257.92V255.104C226.952 255.104 227.325 254.984 227.602 254.744C227.88 254.504 228.09 254.187 228.234 253.792C228.378 253.392 228.485 252.952 228.554 252.472C228.629 251.992 228.69 251.509 228.738 251.024C228.818 250.299 228.882 249.6 228.93 248.928C228.978 248.256 229.018 247.563 229.05 246.848C229.088 246.128 229.128 245.339 229.17 244.48H236.138V255.104H236.954V257.92H236.026V256H227.402V257.92H226.482ZM228.474 255.104H235.218V245.376H230.05C230.018 246.053 229.984 246.72 229.946 247.376C229.914 248.027 229.874 248.683 229.826 249.344C229.778 250 229.72 250.677 229.65 251.376C229.586 252 229.512 252.555 229.426 253.04C229.346 253.52 229.232 253.933 229.082 254.28C228.933 254.621 228.73 254.896 228.474 255.104ZM245.161 256.24C244.334 256.24 243.619 256.056 243.017 255.688C242.414 255.315 241.947 254.789 241.617 254.112C241.286 253.429 241.121 252.624 241.121 251.696C241.121 250.752 241.283 249.939 241.609 249.256C241.939 248.568 242.403 248.04 243.001 247.672C243.603 247.304 244.318 247.12 245.145 247.12C245.982 247.12 246.697 247.312 247.289 247.696C247.886 248.075 248.339 248.624 248.649 249.344C248.963 250.064 249.113 250.931 249.097 251.944H248.137V251.624C248.11 250.44 247.843 249.539 247.337 248.92C246.83 248.301 246.105 247.992 245.161 247.992C244.185 247.992 243.43 248.315 242.897 248.96C242.369 249.6 242.105 250.507 242.105 251.68C242.105 252.843 242.369 253.744 242.897 254.384C243.43 255.024 244.179 255.344 245.145 255.344C245.811 255.344 246.393 255.189 246.889 254.88C247.39 254.565 247.787 254.117 248.081 253.536L248.913 253.904C248.566 254.651 248.065 255.227 247.409 255.632C246.753 256.037 246.003 256.24 245.161 256.24ZM241.753 251.944V251.112H248.577V251.944H241.753ZM253.746 256V247.36H254.666V251.232H259.874V247.36H260.794V256H259.874V252.128H254.666V256H253.746ZM268.316 256V248.24H265.188V247.36H272.364V248.24H269.236V256H268.316Z" fill="white"/>
<defs>
<filter id="filter0_d_18_10" x="65.6007" y="67.8062" width="168.126" height="182.693" filterUnits="userSpaceOnUse" color-interpolation-filters="sRGB">
<feFlood flood-opacity="0" result="BackgroundImageFix"/>
<feColorMatrix in="SourceAlpha" type="matrix" values="0 0 0 0 0 0 0 0 0 0 0 0 0 0 0 0 0 0 127 0" result="hardAlpha"/>
<feOffset dy="4"/>
<feGaussianBlur stdDeviation="2"/>
<feComposite in2="hardAlpha" operator="out"/>
<feColorMatrix type="matrix" values="0 0 0 0 0 0 0 0 0 0 0 0 0 0 0 0 0 0 0.25 0"/>
<feBlend mode="normal" in2="BackgroundImageFix" result="effect1_dropShadow_18_10"/>
<feBlend mode="normal" in="SourceGraphic" in2="effect1_dropShadow_18_10" result="shape"/>
</filter>
</defs>
</svg>
