<svg width="318" height="581" viewBox="0 0 318 581" fill="none" xmlns="http://www.w3.org/2000/svg">
<path d="M13.0268 580.046C65.7316 573.499 115.49 551.566 155.428 516.539C196.021 481.184 224.501 432.735 236.94 380.685C248.398 332.563 249.053 273.966 219.263 231.736C204.859 211.44 184.236 196.709 160.011 190.489C136.769 184.597 111.562 185.906 88.9741 194.09C41.507 211.44 10.0805 257.598 2.22393 306.374C-1.70438 331.254 -1.37702 358.424 11.0626 381.012C24.4843 405.564 51.6551 416.039 77.5165 421.277C126.293 431.098 178.67 421.932 221.554 396.725C265.093 371.191 296.192 328.962 309.941 280.513C323.363 232.718 319.435 180.996 296.847 136.802C275.241 94.2455 237.595 60.2001 193.729 41.5407C183.253 36.9576 172.123 33.6841 160.993 31.0652C150.845 28.7737 146.262 44.4869 156.737 46.7784C199.294 55.9445 237.922 81.1511 264.439 115.524C291.937 151.206 304.704 195.399 300.775 240.248C297.174 285.096 276.878 328.635 243.815 359.406C210.752 390.178 165.576 407.528 120.401 408.51C97.8128 408.838 73.9156 405.564 53.2919 396.725C42.4891 391.815 32.6683 384.94 26.4485 374.792C20.8834 365.299 17.9372 354.496 16.9551 343.366C13.0268 299.172 31.6862 250.723 67.3684 223.88C101.414 198.346 152.154 194.745 186.854 220.933C224.173 249.086 230.721 302.446 226.138 345.657C221.227 394.761 200.604 442.556 168.522 479.875C136.769 516.866 93.8845 543.71 46.7448 556.804C35.6146 559.75 24.157 562.369 12.6994 563.678C8.44375 564.333 4.51545 566.952 4.51545 571.862C4.8428 575.791 8.77111 580.374 13.0268 580.046Z" fill="white"/>
<path d="M181.944 1.27542C174.415 5.85845 166.885 10.7688 160.011 15.6792C156.083 18.2981 152.482 21.2443 148.881 24.1906C145.28 26.8094 142.006 29.7557 140.369 34.0113C136.441 43.8321 145.935 52.6708 151.5 59.8727C157.065 67.0746 162.957 73.6218 169.177 80.169C176.706 87.6982 188.164 76.2407 180.635 68.7114C175.397 63.4737 170.486 57.9086 165.903 52.3435C163.612 49.7246 161.648 46.7784 159.356 44.1595C158.374 42.85 157.065 41.2132 156.083 39.9038C155.755 39.5764 155.428 38.9217 155.101 38.5943C155.101 38.9217 155.101 39.2491 155.428 39.5765C155.428 40.2312 155.101 40.5586 155.101 41.2133C155.428 40.5586 155.755 40.2312 155.428 40.5585C160.338 37.2849 165.903 32.3745 171.141 28.4462C177.361 24.1905 183.581 19.9349 190.128 16.0066C198.967 9.78676 190.783 -4.28968 181.944 1.27542Z" fill="white"/>
</svg>
