<svg width="60" height="60" viewBox="0 0 60 60" fill="none" xmlns="http://www.w3.org/2000/svg">
<path d="M14.9424 30.6768C12.7822 34.8611 10.8567 44.6535 20.4369 50.3492C17.9323 48.5381 13.3269 42.068 14.9424 30.6768Z" fill="#DAECFA"/>
<path d="M35.0465 42.0591C24.8277 23.4359 21.2398 39.5766 20.7232 49.9749C19.4459 32.4009 24.6054 28.101 27.3448 28.1478C32.0409 29.4968 34.436 37.9841 35.0465 42.0591Z" fill="#DAECFA"/>
<path d="M10.1522 8.10028C20.9533 12.9715 25.1799 10.3017 25.2268 10.2549C23.6489 11.529 21.0629 11.9723 19.9671 12.0347C18.6898 12.222 15.2084 11.5819 13.6273 11.2384C5.43728 14.9106 11.248 25.3838 15.1771 30.1614C14.6135 29.8991 11.968 27.3355 10.7157 26.0864C8.87485 24.2878 7.50671 21.8397 7.05275 20.8404C4.37595 13.4399 7.75717 10.2549 8.36767 9.0839C8.85606 8.14712 9.76085 8.03782 10.1522 8.10028Z" fill="#DAECFA"/>
<path d="M31.4244 6.08755C26.8786 1.77835 18.6979 6.5091 15.1758 9.41312C20.6233 3.41778 26.9631 2.32478 29.4521 2.5277C35.8388 3.65184 36.9346 9.14763 36.6841 11.755C36.3084 15.6145 34.1169 19.9831 33.0681 21.6849C36.4023 13.6286 35.1344 11.9424 34.5708 10.1156C34.12 8.65426 32.2854 6.82134 31.4244 6.08755Z" fill="#DAECFA"/>
<path d="M0.525301 40.3725C-0.676911 41.0095 0.462685 42.7301 1.18276 43.5107C10.4248 52.6538 14.332 55.8762 15.1303 56.3445C19.3005 59.9418 28.9839 60.2165 33.3044 59.9043C45.8525 59.3422 54.2805 48.5848 56.926 43.2764C59.0298 39.1546 59.7436 35.1576 59.8376 33.6744C60.6265 27.2292 58.3504 20.2159 57.1138 17.5149C52.4177 7.47259 43.2289 2.71377 39.2215 1.58965C25.0579 -2.15748 15.8504 1.58971 13.017 3.93169C26.5044 -3.0005 39.3937 2.94807 44.1524 6.78888C55.2353 15.707 54.2178 27.0546 52.3237 31.6136C47.9281 43.9042 40.7556 45.2282 37.7187 44.3538C33.4734 42.1056 28.3108 41.6684 26.2602 41.7308C21.3762 42.1056 18.1828 43.4795 17.1966 44.1196C14.5668 45.6185 16.3826 46.7739 17.6193 47.1642C17.6193 47.4265 23.1294 47.0549 25.8845 46.8363C30.9187 47.3234 28.6395 49.6623 26.8707 50.7708C22.2496 53.3188 17.4314 51.5202 15.5999 50.3024L3.48387 41.2625C1.79326 40.0259 0.807069 40.1539 0.525301 40.3725Z" fill="#8CCBFD"/>
<path d="M9.54297 39.3428C11.1397 39.9985 14.2673 42.7808 14.0043 48.6638C13.1433 48.008 11.0457 45.2258 9.54297 39.3428Z" fill="#8CCBFD"/>
<path d="M3.24609 36.3897C4.32621 35.812 7.57594 37.1579 11.934 47.1627C9.63285 45.82 4.67372 41.7856 3.24609 36.3897Z" fill="#8CCBFD"/>
</svg>
