<svg width="223" height="360" viewBox="0 0 223 360" fill="none" xmlns="http://www.w3.org/2000/svg">
<path d="M111.05 359.218C111.134 359.39 111.308 359.5 111.5 359.5C111.692 359.5 111.867 359.39 111.95 359.218L205.914 164.968C205.989 164.813 205.979 164.63 205.887 164.484C205.796 164.339 205.636 164.25 205.464 164.25H120.5C120.497 164.25 120.493 164.25 120.49 164.25C120.487 164.25 120.484 164.25 120.481 164.25L120.484 164.323C120.481 164.25 120.481 164.25 120.481 164.25L120.479 164.25L120.473 164.251L120.447 164.252L120.343 164.255L120.162 164.262C120.095 164.264 120.018 164.267 119.931 164.27C119.567 164.283 119.026 164.301 118.317 164.323C116.9 164.369 114.814 164.431 112.139 164.501C106.788 164.64 99.0795 164.807 89.6516 164.919C70.7954 165.142 45.0622 165.142 17.5526 164.25C17.3776 164.245 17.2125 164.331 17.1171 164.478C17.0218 164.624 17.0101 164.81 17.0863 164.968L111.05 359.218Z" fill="#0B5EEB" stroke="#1554C1" stroke-linejoin="round"/>
<path d="M222.5 108.5C222.5 168.134 172.817 216.5 111.5 216.5C50.1834 216.5 0.5 168.134 0.5 108.5C0.5 48.866 50.1834 0.5 111.5 0.5C172.817 0.5 222.5 48.866 222.5 108.5Z" fill="#0B5EEB" stroke="#1554C1"/>
<path d="M191.267 183.289C192.971 183.289 193.637 181.686 194.587 180.68C195.388 179.833 195.425 178.23 196.485 177.544C197.361 176.977 197.928 175.997 198.619 175.225C199.172 174.607 198.758 173.613 199.318 172.866C199.611 172.475 199.713 171.594 200.043 171.43" stroke="#0B5EEB" stroke-width="3" stroke-linecap="round"/>
<path d="M28.5904 179.839C28.152 179.202 27.6519 178.576 27.1548 177.988C26.9168 177.707 26.5508 177.52 26.3464 177.248C26.1075 176.929 25.9837 176.547 25.7343 176.235C25.3644 175.773 24.9455 175.248 24.7974 174.618C24.6936 174.177 24.375 173.959 24.2459 173.508C24.0429 172.797 23.7357 172.33 23.6943 171.543C23.6756 171.187 23.1651 170.346 22.9085 170.924C22.7355 171.313 22.9977 171.646 23.1503 171.951" stroke="#0B5EEB" stroke-width="3" stroke-linecap="round"/>
<path fill-rule="evenodd" clip-rule="evenodd" d="M39 106.383C39 77.0211 61.021 55 83.0421 55C97.7228 55 97.7228 69.6807 112.403 69.6807C127.084 69.6807 127.084 55 141.765 55C163.786 55 185.807 84.3615 185.807 106.383C171.846 167.836 153.627 199.517 145.714 211.159C144.519 212.851 142.925 214.222 141.074 215.151C139.222 216.081 137.171 216.54 135.1 216.488H134.424C132.473 216.481 130.6 215.714 129.205 214.349C127.81 212.984 127.002 211.128 126.952 209.177C126.453 191.971 124.045 150.425 112.403 150.425C100.762 150.425 98.354 191.971 97.8549 209.177C97.8052 211.128 96.997 212.984 95.6018 214.349C94.2066 215.714 92.3343 216.481 90.3824 216.488H89.7071C87.6363 216.54 85.5846 216.081 83.7334 215.151C81.8822 214.222 80.2884 212.851 79.093 211.159C71.1801 199.517 52.9613 167.836 39 106.383Z" fill="white" stroke="#0B5EEB" stroke-width="3"/>
</svg>
