<svg width="30" height="30" viewBox="0 0 30 30" fill="none" xmlns="http://www.w3.org/2000/svg">
<path fill-rule="evenodd" clip-rule="evenodd" d="M0 15C0 23.2843 6.71573 30 15 30C23.2843 30 30 23.2843 30 15C30 6.71573 23.2843 0 15 0C6.71573 0 0 6.71573 0 15ZM24.4138 14.4259C24.4119 19.3427 20.4122 23.3433 15.4944 23.3453H15.4907C13.9979 23.3448 12.5311 22.9703 11.2283 22.2597L6.5 23.5L7.76538 18.878C6.98483 17.5253 6.57411 15.9909 6.57478 14.4189C6.57674 9.50106 10.578 5.5 15.4943 5.5C17.8804 5.50103 20.1199 6.42992 21.8039 8.11588C23.4879 9.80176 24.4148 12.0427 24.4138 14.4259Z" fill="white"/>
<path fill-rule="evenodd" clip-rule="evenodd" d="M8.64138 21.3813L11.4472 20.6452L11.718 20.8059C12.8562 21.4814 14.161 21.8388 15.4912 21.8393H15.4943C19.5804 21.8393 22.906 18.5135 22.9077 14.4257C22.9084 12.4448 22.1381 10.5822 20.7384 9.18093C19.3387 7.77962 17.4773 7.00752 15.4972 7.00684C11.4079 7.00684 8.08219 10.3323 8.08057 14.4197C8.07999 15.8205 8.47194 17.1848 9.21404 18.3651L9.39031 18.6456L8.64138 21.3813ZM19.6826 16.3466C19.838 16.4217 19.943 16.4725 19.9878 16.5473C20.0435 16.6402 20.0435 17.0864 19.8579 17.6071C19.6721 18.1277 18.7817 18.6028 18.3535 18.6668C17.9696 18.7242 17.4837 18.7481 16.9498 18.5785C16.6261 18.4758 16.211 18.3386 15.6793 18.109C13.5899 17.2068 12.178 15.1818 11.9111 14.7991C11.8924 14.7723 11.8793 14.7535 11.8721 14.7438L11.8703 14.7414C11.7523 14.584 10.962 13.5296 10.962 12.4383C10.962 11.4117 11.4663 10.8736 11.6984 10.6259C11.7143 10.609 11.7289 10.5934 11.742 10.5791C11.9463 10.3559 12.1878 10.3002 12.3364 10.3002C12.4849 10.3002 12.6337 10.3015 12.7635 10.3081C12.7795 10.3089 12.7962 10.3088 12.8134 10.3087C12.9433 10.3079 13.1052 10.3069 13.2649 10.6906C13.3264 10.8383 13.4163 11.0572 13.5111 11.2881C13.7029 11.7549 13.9148 12.2708 13.9521 12.3454C14.0078 12.457 14.0449 12.5871 13.9707 12.7359C13.9595 12.7582 13.9492 12.7793 13.9393 12.7994C13.8835 12.9133 13.8425 12.9971 13.7478 13.1077C13.7106 13.1511 13.6721 13.198 13.6336 13.2449C13.5569 13.3383 13.4803 13.4316 13.4135 13.4981C13.3019 13.6093 13.1858 13.7298 13.3158 13.953C13.4458 14.1761 13.8931 14.9059 14.5556 15.4969C15.2678 16.1321 15.8868 16.4006 16.2006 16.5367C16.2618 16.5633 16.3115 16.5848 16.3479 16.603C16.5707 16.7146 16.7007 16.696 16.8307 16.5473C16.9607 16.3985 17.3878 15.8965 17.5364 15.6734C17.6849 15.4504 17.8335 15.4875 18.0378 15.5618C18.2421 15.6363 19.3378 16.1754 19.5607 16.2869C19.6042 16.3087 19.6449 16.3284 19.6826 16.3466Z" fill="white"/>
</svg>
